<?xml version="1.0" encoding="UTF-8" standalone="no"?>
<svg
   id="logo"
   data-name="logo"
   viewBox="0 0 1297 337"
   version="1.1"
   xmlns="http://www.w3.org/2000/svg"
   xmlns:svg="http://www.w3.org/2000/svg">
  <defs
     id="defs1">
    <style
       id="style1">.cls-1{fill:#fed766;}.cls-2{fill:#272727;}.cls-3{fill:#009fb7;}</style>
  </defs>
  <path
     class="cls-1"
     d="M1121.33,303.86V188.92a15,15,0,0,0-17.4-14.81c-65.35,10.39-116.86,62.13-126.67,127.47a15,15,0,0,0,14.83,17.28h114.24A15,15,0,0,0,1121.33,303.86Z"
     id="path1" />
  <path
     class="cls-2"
     d="M1121.33,149.85V34.9a15,15,0,0,0-17.4-14.81c-65.35,10.39-116.86,62.13-126.67,127.47a15,15,0,0,0,14.83,17.29h114.24A15,15,0,0,0,1121.33,149.85Z"
     id="path2" />
  <path
     class="cls-2"
     d="M1146.67,165h115.44a15,15,0,0,0,14.82-17.4c-10.38-65.87-62.35-117.81-128-127.67a15,15,0,0,0-17.29,14.83V150A15,15,0,0,0,1146.67,165Z"
     id="path3" />
  <rect
     class="cls-2"
     x="1132"
     y="172.35"
     width="147"
     height="146.65"
     rx="15"
     id="rect3" />
  <path
     class="cls-2"
     d="M793,173.6H677.58A15,15,0,0,0,662.76,191a152.68,152.68,0,0,0,128,126.67A15,15,0,0,0,808,302.85V188.6A15,15,0,0,0,793,173.6Z"
     id="path4" />
  <path
     class="cls-3"
     d="M676,164.67H791.42a15,15,0,0,0,14.82-17.42,152.7,152.7,0,0,0-128-126.67A15,15,0,0,0,661,35.42V149.67A15,15,0,0,0,676,164.67Z"
     id="path5" />
  <path
     class="cls-2"
     d="M832.54,173.6H948A15,15,0,0,1,962.77,191,152.67,152.67,0,0,1,834.82,317.68a15,15,0,0,1-17.28-14.83V188.6A15,15,0,0,1,832.54,173.6Z"
     id="path6" />
  <path
     class="cls-2"
     d="M472,173.53H356.58a15,15,0,0,0-14.82,17.41,152.68,152.68,0,0,0,128,126.67A15,15,0,0,0,487,302.78V188.53A15,15,0,0,0,472,173.53Z"
     id="path7" />
  <path
     class="cls-1"
     d="M486.33,150.33V34.91A15,15,0,0,0,468.92,20.1a152.67,152.67,0,0,0-126.67,128,15,15,0,0,0,14.83,17.28H471.33A15,15,0,0,0,486.33,150.33Z"
     id="path8" />
  <path
     class="cls-2"
     d="M511.54,173.6H627A15,15,0,0,1,641.77,191,152.67,152.67,0,0,1,513.82,317.68a15,15,0,0,1-17.28-14.83V188.6A15,15,0,0,1,511.54,173.6Z"
     id="path9" />
  <path
     class="cls-2"
     d="M497.2,150.4V35a15,15,0,0,1,17.42-14.82,152.7,152.7,0,0,1,126.67,128,15,15,0,0,1-14.84,17.28H512.2A15,15,0,0,1,497.2,150.4Z"
     id="path10" />
  <path
     class="cls-3"
     d="M150,173.53H34.58a15,15,0,0,0-14.82,17.41,152.68,152.68,0,0,0,128,126.67A15,15,0,0,0,165,302.78V188.53A15,15,0,0,0,150,173.53Z"
     id="path11" />
  <path
     class="cls-2"
     d="M33,164.67H148.42a15,15,0,0,0,14.82-17.42,152.7,152.7,0,0,0-128-126.67A15,15,0,0,0,18,35.42V149.67A15,15,0,0,0,33,164.67Z"
     id="path12" />
  <path
     class="cls-2"
     d="M189.54,173.6H305A15,15,0,0,1,319.77,191,152.67,152.67,0,0,1,191.82,317.68a15,15,0,0,1-17.28-14.83V188.6A15,15,0,0,1,189.54,173.6Z"
     id="path13" />
  <path
     class="cls-2"
     d="M306.54,164.73H191.11a15,15,0,0,1-14.81-17.41,152.67,152.67,0,0,1,128-126.67,15,15,0,0,1,17.28,14.83V149.73A15,15,0,0,1,306.54,164.73Z"
     id="path14" />
</svg>
