<?xml version="1.0" encoding="UTF-8" standalone="no"?>
<svg
   id="icon"
   data-name="icon"
   viewBox="0 0 303 300"
   version="1.1"
   xmlns="http://www.w3.org/2000/svg"
   xmlns:svg="http://www.w3.org/2000/svg">
  <defs
     id="defs1">
    <style
       id="style1">.cls-1{fill:#009fb7;}.cls-2{fill:#272727;}</style>
  </defs>
  <path
     class="cls-1"
     d="M132,153.61H16.51A15,15,0,0,0,1.69,171a152.74,152.74,0,0,0,128,126.73A15,15,0,0,0,147,282.92V168.62A15,15,0,0,0,132,153.61Z"
     id="path1" />
  <path
     class="cls-2"
     d="M14.93,144.74H130.41a15,15,0,0,0,14.82-17.42A152.75,152.75,0,0,0,17.21.58,15,15,0,0,0-.08,15.42V129.73A15,15,0,0,0,14.93,144.74Z"
     id="path2" />
  <path
     class="cls-2"
     d="M171.55,153.68H287a15,15,0,0,1,14.82,17.42,152.76,152.76,0,0,1-128,126.73A15,15,0,0,1,156.54,283V168.68A15,15,0,0,1,171.55,153.68Z"
     id="path3" />
  <path
     class="cls-2"
     d="M288.61,144.81H173.12a15,15,0,0,1-14.82-17.42A152.77,152.77,0,0,1,286.33.65a15,15,0,0,1,17.28,14.84V129.8A15,15,0,0,1,288.61,144.81Z"
     id="path4" />
</svg>
